<svg xmlns="http://www.w3.org/2000/svg" viewBox="0 0 128 128" role="img" aria-label="Apache Manager">
  <defs>
    <linearGradient id="apache-bg" x1="20" y1="12" x2="108" y2="116" gradientUnits="userSpaceOnUse">
      <stop offset="0" stop-color="#ffb15f"/>
      <stop offset="0.48" stop-color="#f06d2f"/>
      <stop offset="1" stop-color="#8c2f19"/>
    </linearGradient>
    <linearGradient id="apache-feather" x1="34" y1="24" x2="94" y2="104" gradientUnits="userSpaceOnUse">
      <stop offset="0" stop-color="#fff2c7"/>
      <stop offset="0.42" stop-color="#ffd36b"/>
      <stop offset="1" stop-color="#ff6048"/>
    </linearGradient>
  </defs>
  <rect width="128" height="128" rx="28" fill="#141923"/>
  <rect x="12" y="12" width="104" height="104" rx="24" fill="url(#apache-bg)"/>
  <path d="M79.8 18.8c-22.6 8-39.5 28.7-47.7 58.9-2 7.3-4.2 19.8-3.1 20.5 1.2.8 12.9-9.1 20.5-17.7 4.1-4.7 9.6-11.8 12.2-15.9 3.4-5.4 5.4-7.7 7.2-8.3 4.8-1.6 11-5.7 15.7-10.5 5.1-5.2 13.9-19.3 13.1-21-.8-1.6-10.2-8.8-12.1-9.2-.7-.2-3.3.8-5.8 3.2Z" fill="url(#apache-feather)"/>
  <path d="M76.3 24.4c-12.9 8.7-22.6 20.8-30.1 37.2 9.5-10.2 19.5-18.4 31.3-25.8 5.3-3.3 9.4-6.5 9.2-7.2-.3-1-6.4-5.7-7.4-5.7-.3 0-1.7.7-3 1.5Z" fill="#fff7df" opacity=".72"/>
  <path d="M39.2 92.5c20.5-4.1 42.3-3.3 61.8 2.4" fill="none" stroke="#fff7df" stroke-width="7" stroke-linecap="round" opacity=".9"/>
  <path d="M33.2 106.2c26.8-5.2 48.9-4.2 68.1 3.1" fill="none" stroke="#321812" stroke-width="7" stroke-linecap="round" opacity=".42"/>
</svg>
