<svg xmlns="http://www.w3.org/2000/svg" viewBox="0 0 24 24" width="24" height="24" role="img" aria-label="Caddy Manager">
  <defs>
    <linearGradient id="caddyIconGradient" x1="4" y1="3" x2="20" y2="21" gradientUnits="userSpaceOnUse">
      <stop stop-color="#72c7ff"/>
      <stop offset="1" stop-color="#89dfa3"/>
    </linearGradient>
  </defs>
  <rect x="2.5" y="2.5" width="19" height="19" rx="5" fill="#0b1119"/>
  <path d="M12 4.2 18.2 6.6v4.9c0 3.8-2.5 6.7-6.2 8.3-3.7-1.6-6.2-4.5-6.2-8.3V6.6L12 4.2Z" fill="url(#caddyIconGradient)" opacity=".22"/>
  <path d="M15.8 15.2a5.1 5.1 0 1 1 0-6.4l-1.9 1.4a2.7 2.7 0 1 0 0 3.6l1.9 1.4Z" fill="url(#caddyIconGradient)"/>
  <path d="M16.8 11h-.6v-1a2.1 2.1 0 0 0-4.2 0v1h-.6v4.2h5.4V11Zm-3.1-1a.4.4 0 0 1 .8 0v1h-.8v-1Z" fill="#eef6ff"/>
</svg>
